<svg xmlns="http://www.w3.org/2000/svg" version="1.1" xmlns:xlink="http://www.w3.org/1999/xlink" xmlns:svgjs="http://svgjs.dev/svgjs" width="1500" height="1500" viewBox="0 0 1500 1500"><rect width="1500" height="1500" fill="#000000"></rect><g transform="matrix(0.6666666666666666,0,0,0.6666666666666666,248.56656210169683,342.3559139784947)"><svg viewBox="0 0 305 248" data-background-color="#444444" preserveAspectRatio="xMidYMid meet" height="1219" width="1500" xmlns="http://www.w3.org/2000/svg" xmlns:xlink="http://www.w3.org/1999/xlink"><g id="tight-bounds" transform="matrix(1,0,0,1,0.43719855898245896,0.4000000000000057)"><svg viewBox="0 0 304.1256028820351 247.2" height="247.2" width="304.1256028820351"><g><svg viewBox="0 0 395.52 321.4873824283851" height="247.2" width="304.1256028820351"><g transform="matrix(1,0,0,1,0,235.1570373126308)"><svg viewBox="0 0 395.52 86.33034511575428" height="86.33034511575428" width="395.52"><g id="textblocktransform"><svg viewBox="0 0 395.52 86.33034511575428" height="86.33034511575428" width="395.52" id="textblock"><g><rect width="112.1677381796026" height="4.199050964175622" y="69.84301857223853" fill="#ffffff" data-fill-palette-color="tertiary"></rect><rect width="112.1677381796026" height="4.199050964175622" y="69.84301857223853" x="283.3522618203974" fill="#ffffff" data-fill-palette-color="tertiary"></rect></g><g><svg viewBox="0 0 395.52 46.56246298196745" height="46.56246298196745" width="395.52"><g transform="matrix(1,0,0,1,0,0)"><svg width="395.52" viewBox="2.76 -38.11 333.03000000000003 39.21" height="46.56246298196745" data-palette-color="#ffffff"><path d="M11.74-14.65L11.74-14.65 11.74-2.76 17.26-1 17.26 0 2.76 0 2.76-1 7.25-2.76 7.25-33.25 2.76-35.01 2.76-36.01 15.94-36.01Q19.12-36.01 21.58-35.29 24.05-34.57 25.74-33.25 27.44-31.93 28.32-30.09 29.2-28.25 29.2-26L29.2-26Q29.2-23.68 28.39-21.58 27.59-19.48 25.88-17.9 24.17-16.31 21.53-15.37 18.9-14.43 15.21-14.43L15.21-14.43Q13.57-14.43 11.74-14.65ZM16.65-33.45L16.65-33.45 11.74-33.45 11.74-17.26Q12.67-17.14 13.5-17.08 14.33-17.02 15.09-17.02L15.09-17.02Q17.82-17.02 19.59-17.7 21.36-18.38 22.4-19.56 23.44-20.73 23.84-22.29 24.24-23.85 24.24-25.61L24.24-25.61Q24.24-29.54 22.29-31.49 20.34-33.45 16.65-33.45ZM45.16-25.61L45.16-25.61Q47.95-25.61 50.17-24.66 52.39-23.71 53.93-21.98 55.47-20.26 56.28-17.85 57.1-15.43 57.1-12.5L57.1-12.5Q57.1-9.59 56.3-7.18 55.49-4.76 53.95-3.03 52.41-1.29 50.19-0.34 47.97 0.61 45.16 0.61L45.16 0.61Q42.33 0.61 40.11-0.34 37.89-1.29 36.35-3.03 34.81-4.76 34.01-7.17 33.2-9.57 33.2-12.5L33.2-12.5Q33.2-15.43 34.02-17.85 34.84-20.26 36.37-21.98 37.91-23.71 40.13-24.66 42.36-25.61 45.16-25.61ZM39.84-20.43L39.84-20.43Q37.96-17.38 37.96-12.5L37.96-12.5Q37.96-10.08 38.44-8.07 38.91-6.05 39.83-4.6 40.74-3.15 42.09-2.34 43.43-1.54 45.16-1.54L45.16-1.54Q46.9-1.54 48.26-2.34 49.63-3.15 50.57-4.6 51.51-6.05 52.01-8.07 52.51-10.08 52.51-12.5L52.51-12.5Q52.51-14.89 52.01-16.91 51.51-18.92 50.57-20.37 49.63-21.83 48.26-22.64 46.9-23.46 45.16-23.46L45.16-23.46Q41.7-23.46 39.84-20.43ZM70.09-2.76L75.85-1 75.85 0 61.1 0 61.1-1 65.6-2.76 65.6-21.09 61.1-22.85 61.1-23.85 69.6-25.61 70.09-25.1 70.09-22.09Q73.8-25.61 79.85-25.61L79.85-25.61 79.85-20.19 78.85-19.85 75.29-21.8Q74.19-21.8 72.77-21.33 71.36-20.85 70.09-19.95L70.09-19.95 70.09-2.76ZM98.33-23.1L90.32-21.61 90.32-8.01Q90.32-6.35 90.58-5.22 90.84-4.1 91.34-3.55 91.84-3 92.4-2.8 92.96-2.59 93.74-2.59L93.74-2.59Q95.21-2.59 96.2-2.84 97.18-3.1 98.33-3.81L98.33-3.81 99.09-2.25Q95.65 0.61 91.55 0.61L91.55 0.61Q89.15 0.61 87.49-1.28 85.83-3.17 85.83-6.59L85.83-6.59 85.83-21.61 81.29-22.85 81.29-23.85 86.03-24.85 87.83-31.59 90.32-31.59 90.32-24.85 97.48-24.85 98.33-24.56 98.33-23.1ZM119.69-23.1L111.95-21.61 111.95-2.76 118.2-1 118.2 0 102.94 0 102.94-1 107.44-2.76 107.44-21.51 102.7-22.85 102.7-23.85 107.44-24.85 107.44-27.34Q107.44-29.96 108.36-32.06 109.29-34.16 110.84-35.45 112.39-36.74 114.33-37.43 116.27-38.11 118.4-38.11L118.4-38.11Q119.16-38.11 120.42-37.92 121.69-37.72 122.35-37.45L122.35-37.45 122.35-30 121.35-30 117.89-35.84Q115.76-35.84 114.41-34.77 113.05-33.69 112.5-31.97 111.95-30.25 111.95-27.86L111.95-27.86 111.95-24.85 118.84-24.85 119.69-24.56 119.69-23.1ZM134.8-25.61L134.8-25.61Q137.59-25.61 139.81-24.66 142.03-23.71 143.57-21.98 145.1-20.26 145.92-17.85 146.74-15.43 146.74-12.5L146.74-12.5Q146.74-9.59 145.93-7.18 145.13-4.76 143.59-3.03 142.05-1.29 139.83-0.34 137.61 0.61 134.8 0.61L134.8 0.61Q131.97 0.61 129.75-0.34 127.53-1.29 125.99-3.03 124.45-4.76 123.64-7.17 122.84-9.57 122.84-12.5L122.84-12.5Q122.84-15.43 123.66-17.85 124.47-20.26 126.01-21.98 127.55-23.71 129.77-24.66 131.99-25.61 134.8-25.61ZM129.48-20.43L129.48-20.43Q127.6-17.38 127.6-12.5L127.6-12.5Q127.6-10.08 128.08-8.07 128.55-6.05 129.47-4.6 130.38-3.15 131.73-2.34 133.07-1.54 134.8-1.54L134.8-1.54Q136.54-1.54 137.9-2.34 139.27-3.15 140.21-4.6 141.15-6.05 141.65-8.07 142.15-10.08 142.15-12.5L142.15-12.5Q142.15-14.89 141.65-16.91 141.15-18.92 140.21-20.37 139.27-21.83 137.9-22.64 136.54-23.46 134.8-23.46L134.8-23.46Q131.34-23.46 129.48-20.43ZM134.29-28.49L132.95-29.44 137.73-37.99 141.34-37.01 141.64-35.89 134.29-28.49ZM159.48-2.76L163.97-1 163.97 0 150.47 0 150.47-1 154.99-2.76 154.99-33.59 150.47-35.35 150.47-36.35 158.99-38.11 159.48-37.6 159.48-2.76ZM176.98-2.76L181.48-1 181.48 0 167.98 0 167.98-1 172.47-2.76 172.47-21.09 167.98-22.85 167.98-23.85 176.47-25.61 176.98-25.1 176.98-2.76ZM170.83-32.96L170.83-32.96Q170.83-34.23 171.72-35.12 172.61-36.01 173.93-36.01L173.93-36.01Q175.2-36.01 176.09-35.12 176.98-34.23 176.98-32.96L176.98-32.96Q176.98-31.64 176.09-30.75 175.2-29.86 173.93-29.86L173.93-29.86Q172.61-29.86 171.72-30.75 170.83-31.64 170.83-32.96ZM197.17-25.61L197.17-25.61Q199.96-25.61 202.18-24.66 204.4-23.71 205.94-21.98 207.48-20.26 208.29-17.85 209.11-15.43 209.11-12.5L209.11-12.5Q209.11-9.59 208.31-7.18 207.5-4.76 205.96-3.03 204.42-1.29 202.2-0.34 199.98 0.61 197.17 0.61L197.17 0.61Q194.34 0.61 192.12-0.34 189.9-1.29 188.36-3.03 186.82-4.76 186.02-7.17 185.21-9.57 185.21-12.5L185.21-12.5Q185.21-15.43 186.03-17.85 186.85-20.26 188.38-21.98 189.92-23.71 192.14-24.66 194.36-25.61 197.17-25.61ZM191.85-20.43L191.85-20.43Q189.97-17.38 189.97-12.5L189.97-12.5Q189.97-10.08 190.45-8.07 190.92-6.05 191.84-4.6 192.75-3.15 194.1-2.34 195.44-1.54 197.17-1.54L197.17-1.54Q198.91-1.54 200.27-2.34 201.64-3.15 202.58-4.6 203.52-6.05 204.02-8.07 204.52-10.08 204.52-12.5L204.52-12.5Q204.52-14.89 204.02-16.91 203.52-18.92 202.58-20.37 201.64-21.83 200.27-22.64 198.91-23.46 197.17-23.46L197.17-23.46Q193.71-23.46 191.85-20.43ZM254.3-1L258.54-2.76 258.54-16.99 240.36-16.99 240.36-2.76 244.85-1 244.85 0 231.35 0 231.35-1 235.6-2.76 235.6-33.25 231.1-35.01 231.1-36.01 244.6-36.01 244.6-35.01 240.36-33.25 240.36-19.6 258.54-19.6 258.54-33.25 254.05-35.01 254.05-36.01 267.04-36.01 267.04-35.11 263.31-33.25 263.31-2.76 267.8-1 267.8 0 254.3 0 254.3-1ZM290.74-1.66L290.74-1.66Q293.21-1.66 295.04-2.22 296.87-2.78 298.29-4.08 299.7-5.37 300.42-7.67 301.14-9.96 301.14-13.26L301.14-13.26 301.14-33.01 296.65-35.01 296.65-36.01 308.49-36.01 308.49-35.01 304.39-33.01 304.39-13.6Q304.39-6.15 301.02-2.58 297.65 1 290.84 1L290.84 1Q288.45 1 286.53 0.62 284.62 0.24 282.86-0.74 281.1-1.73 279.93-3.31 278.76-4.88 278.06-7.4 277.37-9.91 277.37-13.26L277.37-13.26 277.37-33.25 272.85-35.01 272.85-36.01 286.35-36.01 286.35-35.01 282.1-33.25 282.1-13.89Q282.1-1.66 290.74-1.66ZM316.89-0.85L315.5 1.1 314.01 1.1 314.01-33.59 309.49-35.35 309.49-36.35 317.99-38.11 318.5-37.6 318.5-23.39Q321.04-25.61 325.14-25.61L325.14-25.61Q327.17-25.61 329.08-24.69 331-23.78 332.49-22.13 333.98-20.48 334.88-17.97 335.79-15.45 335.79-12.5L335.79-12.5Q335.79-9.38 334.75-6.84 333.71-4.3 331.95-2.7 330.19-1.1 327.96-0.24 325.73 0.61 323.24 0.61L323.24 0.61Q320.04 0.61 316.89-0.85L316.89-0.85ZM323.36-23.1L323.36-23.1Q320.48-23.1 318.5-20.8L318.5-20.8 318.5-4.2Q319.72-2.81 320.93-2.36 322.14-1.9 323.51-1.9L323.51-1.9Q325.78-1.9 327.45-3.44 329.12-4.98 329.91-7.34 330.71-9.69 330.71-12.5L330.71-12.5Q330.71-17.16 328.69-20.13 326.68-23.1 323.36-23.1Z" opacity="1" transform="matrix(1,0,0,1,0,0)" fill="#ffffff" class="wordmark-text-0" data-fill-palette-color="primary" id="text-0"></path></svg></g></svg></g><g transform="matrix(1,0,0,1,112.1677381796026,57.5547429928984)"><svg viewBox="0 0 171.1845236407948 28.775602122855886" height="28.775602122855886" width="171.1845236407948"><g transform="matrix(1,0,0,1,8,0)"><svg width="155.1845236407948" viewBox="2.35 -29.75 266.3586734687999 49.4" height="28.775602122855886" data-palette-color="#00d1cd"><path d="M10.45 3.65L10.45 3.65Q8.5 3.65 7.18 2.2 5.85 0.75 5.85-1.2L5.85-1.2Q5.85-1.8 6.1-2.7L6.1-2.7Q2.35-4.2 2.35-8L2.35-8Q2.35-10.1 3.53-12.7 4.7-15.3 6.8-17.95L6.8-17.95Q9.4-21.25 12.73-23.93 16.05-26.6 19.53-28.18 23-29.75 26.05-29.75L26.05-29.75Q29.05-29.75 30.95-27.7 32.85-25.65 32.85-22.6L32.85-22.6Q32.85-21.2 32.5-20.1L32.5-20.1Q31.55-16.6 29.63-13.23 27.7-9.85 25.13-6.85 22.55-3.85 19.65-1.3L19.65-1.3 19.7-1.3Q17.3 0.8 14.75 2.23 12.2 3.65 10.45 3.65ZM10.8 2.15L10.8 2.15Q12.25 2.15 14.38 0.95 16.5-0.25 18.6-2.1L18.6-2.1Q26.55-9.1 29.65-19.7L29.65-19.7Q30.35-22.05 30.35-24L30.35-24Q30.35-26.1 29.48-27.38 28.6-28.65 26.75-28.65L26.75-28.65 26.7-28.65Q22.1-28.65 17.35-25.7L17.35-25.7Q14.2-23.7 11.58-20.98 8.95-18.25 7.18-15.23 5.4-12.2 4.75-9.3L4.75-9.3Q4.6-8.65 4.6-8L4.6-8Q4.6-5.6 6.55-4.25L6.55-4.25Q7.1-6 7.95-7.93 8.8-9.85 10.05-11.85L10.05-11.85Q11.65-14.55 13.45-16.9 15.25-19.25 16.95-20.98 18.65-22.7 19.9-23.4L19.9-23.4Q20.15-23.55 20.58-23.68 21-23.8 21.35-23.8L21.35-23.8Q22.2-23.8 21.8-23.15L21.8-23.15Q21.6-22.7 20.5-21.75L20.5-21.75Q18-19.7 15.43-16.75 12.85-13.8 10.83-10.48 8.8-7.15 7.9-3.85L7.9-3.85 8.65-3.75Q9.6-3.75 11.08-4.15 12.55-4.55 13.4-5L13.4-5Q13.7-5.15 13.85-5.15L13.85-5.15Q14.1-5.15 14.1-4.9L14.1-4.9Q14.1-4.5 13.3-4.08 12.5-3.65 11.4-3.3 10.3-2.95 9.38-2.78 8.45-2.6 8.2-2.65L8.2-2.65 7.65-2.75Q7.6-2.6 7.6-2.05L7.6-2.05Q7.6-0.3 8.47 0.93 9.35 2.15 10.8 2.15ZM27.75 1.05L27.75 1.05Q27.1 1.05 27.1-0.1L27.1-0.1Q27.1-1.05 27.55-1.95L27.55-1.95Q28.7-4.15 29.65-6.3L29.65-6.3Q30.3-7.6 30.87-8.8 31.45-10 31.95-11L31.95-11Q32.25-11.3 32.55-11.3L32.55-11.3Q33.2-11.3 32.95-10.7L32.95-10.7Q32.85-10.35 32.67-9.88 32.5-9.4 32.25-8.75L32.25-8.75Q31.45-6.65 31.3-5.8L31.3-5.8Q32.7-7.05 34.17-8.13 35.65-9.2 36.95-9.9 38.25-10.6 39.15-10.6L39.15-10.6Q39.95-10.6 39.95-9.95L39.95-9.95Q39.95-9.4 39.45-8.78 38.95-8.15 38.45-8.15L38.45-8.15Q38.2-8.15 38.05-8.3L38.05-8.3Q37.9-8.35 37.45-8.35L37.45-8.35Q35.85-8.35 34.1-6.8L34.1-6.8Q32.25-5.25 30.75-3.08 29.25-0.9 28.55 0.7L28.55 0.7Q28.2 1.05 27.75 1.05ZM37.5 10.75L37.5 10.75Q36.4 10.75 35.67 9.73 34.95 8.7 34.95 7.4L34.95 7.4Q34.95 6.35 35.25 5.85L35.25 5.85Q35.65 5.3 36 5.3L36 5.3Q36.4 5.3 36.4 5.75L36.4 5.75Q36.4 6.15 36.1 6.55L36.1 6.55Q35.9 6.8 35.9 7.2L35.9 7.2Q35.9 7.95 36.4 8.7 36.9 9.45 37.6 9.45L37.6 9.45Q37.7 9.45 37.8 9.43 37.9 9.4 38.05 9.35L38.05 9.35Q40.4 8.45 42.35 5.6L42.35 5.6Q44.3 2.7 45.55-0.78 46.8-4.25 47.4-7.2L47.4-7.2 47.2-7.25Q47.05-7.35 46.75-7.03 46.45-6.7 46.15-6.33 45.85-5.95 45.75-5.8L45.75-5.8Q45.6-5.6 44.97-4.93 44.35-4.25 43.5-3.43 42.65-2.6 41.8-1.8 40.95-1 40.35-0.5L40.35-0.5Q39.6 0.15 38.5 0.15L38.5 0.15Q38.2 0.15 37.9 0.05L37.9 0.05Q37.35-0.25 37.35-0.9L37.35-0.9Q37.35-1.75 38.35-3.5L38.35-3.5Q39.1-4.8 40.6-6.78 42.1-8.75 43.9-10.15L43.9-10.15Q45.2-11.2 46.6-11.5L46.6-11.5Q46.85-11.55 47.1-11.58 47.35-11.6 47.6-11.65L47.6-11.65Q47.85-11.65 48.05-11.65 48.25-11.65 48.45-11.7L48.45-11.7Q48.5-11.7 49.22-11.78 49.95-11.85 50.15-12.25L50.15-12.25 50.3-12.3Q50.5-12.3 50.7-12.1L50.7-12.1Q50.85-11.95 50.85-11.5L50.85-11.5Q50.85-11.35 50.8-11.13 50.75-10.9 50.75-10.6L50.75-10.6 50.75-10.55Q50.75-8.7 50.05-6.73 49.35-4.75 48.55-2.7L48.55-2.7Q46.9 1.45 44.37 5 41.85 8.55 38.8 10.35L38.8 10.35Q38.15 10.75 37.5 10.75ZM39-1.65L39-1.65Q39.2-1.55 39.3-1.55L39.3-1.55Q39.55-1.55 40.05-1.8L40.05-1.8Q40.4-2 40.77-2.3 41.15-2.6 41.65-3L41.65-3Q42-3.25 42.45-3.7 42.9-4.15 43.5-4.75L43.5-4.75 44.45-5.65Q45.15-6.35 45.95-7.3 46.75-8.25 47.3-9.15 47.85-10.05 47.85-10.55L47.85-10.55Q47.85-11 47.3-11L47.3-11Q46.75-11 45.82-10.4 44.9-9.8 43.92-8.95 42.95-8.1 42.25-7.3L42.25-7.3Q41.6-6.65 41.02-5.88 40.45-5.1 39.9-4.25L39.9-4.25Q39.25-3.3 39-2.6L39-2.6Q38.7-1.85 39-1.65ZM58.84 1.35L58.84 1.35Q58.74 1.35 58.64 1.33 58.54 1.3 58.44 1.25L58.44 1.25Q57.74 0.9 57.54 0.25 57.34-0.4 57.44-1.4L57.44-1.4Q57.54-1.8 57.67-2.8 57.79-3.8 57.99-4.4L57.99-4.4 55.44-1.95 54.04-0.6Q52.59 0.85 51.64 0.85L51.64 0.85Q51.24 0.85 50.99 0.55L50.99 0.55Q50.54 0 50.54-0.8L50.54-0.8Q50.54-1.85 51.09-3.05 51.64-4.25 52.39-5.38 53.14-6.5 53.74-7.25L53.74-7.25Q55.24-9.1 56.67-10.15 58.09-11.2 59.64-11.2L59.64-11.2Q60.49-11.2 61.32-10.9 62.14-10.6 62.84-9.9L62.84-9.9 62.89-9.85Q62.89-9.7 62.64-9.55L62.64-9.55Q62.54-9.45 62.47-9.4 62.39-9.35 62.34-9.3L62.34-9.3Q61.74-8.7 60.99-7.3 60.24-5.9 59.69-4.38 59.14-2.85 59.14-1.75L59.14-1.75Q59.14-0.75 59.64-0.4L59.64-0.4Q59.89-0.25 60.19-0.25L60.19-0.25Q60.84-0.25 61.99-1.05L61.99-1.05Q62.04-1.1 62.22-1.23 62.39-1.35 62.74-1.6L62.74-1.6Q63.14-1.9 63.39-1.9L63.39-1.9Q63.64-1.9 63.64-1.7L63.64-1.7Q63.64-1.4 63.24-1L63.24-1Q62.94-0.75 62.57-0.45 62.19-0.15 61.69 0.15L61.69 0.15Q60.94 0.7 60.14 1.03 59.34 1.35 58.84 1.35ZM53.19-1.85L53.19-1.85Q54.24-1.85 57.09-4.95L57.09-4.95Q57.84-5.8 58.44-6.58 59.04-7.35 59.54-8.1L59.54-8.1Q60.44-9.55 60.14-10.1L60.14-10.1Q59.99-10.4 59.54-10.4L59.54-10.4Q58.99-10.4 58.04-9.83 57.09-9.25 56.12-8.35 55.14-7.45 54.34-6.55L54.34-6.55Q53.79-5.85 53.24-4.6 52.69-3.35 52.69-2.55L52.69-2.55Q52.69-1.85 53.19-1.85ZM64.94 0.8L64.94 0.8Q64.04 0.8 64.04 0.1L64.04 0.1Q64.04-0.35 64.37-1.05 64.69-1.75 65.04-2.4L65.04-2.4Q65.99-4.1 66.79-5.7 67.59-7.3 68.34-9.1L68.34-9.1Q68.69-9.9 69.39-9.9L69.39-9.9Q70.14-9.9 69.84-9L69.84-9Q69.54-8.25 69.24-7.65L69.24-7.65Q67.84-4.8 67.84-3.8L67.84-3.8Q67.84-3.35 68.14-3.25L68.14-3.25Q68.84-3.8 69.19-4.08 69.54-4.35 69.59-4.4L69.59-4.4Q70.29-4.95 71.17-5.68 72.04-6.4 73.09-7.35L73.09-7.35Q74.74-8.85 75.84-8.85L75.84-8.85Q77.19-8.85 76.99-6.4L76.99-6.4Q76.94-5.45 76.99-4.55L76.99-4.55Q77.04-4.35 77.04-3.98 77.04-3.6 77.04-3.1L77.04-3.1Q77.04-2.6 77.64-2.6L77.64-2.6Q78.34-2.6 78.94-3L78.94-3 80.04-3.75 81.14-4.45Q81.24-4.5 81.49-4.5L81.49-4.5Q81.79-4.5 81.49-4.05L81.49-4.05Q78.34-0.15 76.29-0.15L76.29-0.15Q75.89-0.15 75.49-0.3L75.49-0.3Q75.14-0.45 74.99-1.18 74.84-1.9 74.82-2.75 74.79-3.6 74.79-4.05L74.79-4.05 74.84-5.7Q74.84-6.75 74.29-6.75L74.29-6.75Q72.99-6.75 67.89-1.4L67.89-1.4Q67.49-0.9 66.64-0.05 65.79 0.8 64.94 0.8ZM86.74-10.95L86.74-10.95Q86.09-10.95 86.09-11.25L86.09-11.25Q86.09-11.5 86.46-11.98 86.84-12.45 87.34-12.8L87.34-12.8Q88.44-13.5 89.06-14 89.69-14.5 90.59-15.7L90.59-15.7Q90.64-15.6 90.64-15.3L90.64-15.3Q90.64-14.65 90.11-13.73 89.59-12.8 88.94-12.05 88.29-11.3 87.79-11.1L87.79-11.1Q87.34-10.95 86.74-10.95ZM82.29 1.3L82.29 1.3Q81.89 1.3 81.54 1 81.19 0.7 81.19 0.2L81.19 0.2Q81.19-0.85 82.64-3.65L82.64-3.65 83.19-4.75Q83.29-4.85 83.46-5.25 83.64-5.65 83.99-6.3L83.99-6.3Q84.34-7 84.54-7.55 84.74-8.1 84.84-8.6L84.84-8.6Q84.84-8.65 85.04-8.8 85.24-8.95 85.44-9.05L85.44-9.05 85.74-9.1Q86.14-9.1 86.41-8.95 86.69-8.8 86.59-8.55L86.59-8.55Q86.24-7.8 85.99-7.25 85.74-6.7 85.59-6.3L85.59-6.3 85.54-6.3Q84.99-5.05 84.61-3.93 84.24-2.8 84.29-1.8L84.29-1.8 84.34-0.45Q84.29 0.05 83.99 0.4L83.99 0.4Q83.79 0.55 83.44 0.78 83.09 1 82.54 1.25L82.54 1.25Q82.49 1.3 82.29 1.3ZM80.89 19.65L80.89 19.65Q80.34 19.65 80.04 18.65L80.04 18.65Q79.89 18.2 79.89 17.55L79.89 17.55Q79.89 14.75 82.49 10.95L82.49 10.95Q83.79 9.05 85.41 7 87.04 4.95 88.74 3.18 90.44 1.4 91.79 0.3L91.79 0.3Q92.29-0.1 92.66-0.8 93.04-1.5 93.29-2.23 93.54-2.95 93.54-3.3L93.54-3.3Q93.54-4 92.89-4L92.89-4Q92.49-4 91.74-3.65L91.74-3.65Q91.39-3.45 91.06-3.2 90.74-2.95 90.29-2.65L90.29-2.65 89.09-1.85Q88.64-1.55 88.29-1.55L88.29-1.55Q87.59-1.55 87.59-2.2L87.59-2.2Q87.59-2.65 88.09-3.15L88.09-3.15Q88.09-3.3 88.39-3.45L88.39-3.45Q89.64-4 91.14-5.4L91.14-5.4Q92.74-6.8 94.06-8.53 95.39-10.25 95.79-11.85L95.79-11.85Q95.94-12.6 95.94-13.05L95.94-13.05Q95.94-14.3 94.84-14.3L94.84-14.3Q93.09-14.3 91.16-12.93 89.24-11.55 87.69-9.8L87.69-9.8Q87.64-9.65 87.49-9.65L87.49-9.65Q87.24-9.65 87.24-10.05L87.24-10.05Q87.24-10.3 87.39-10.45L87.39-10.45Q88.39-11.7 89.69-12.85 90.99-14 92.41-14.78 93.84-15.55 95.14-15.55L95.14-15.55Q95.34-15.55 95.61-15.5 95.89-15.45 96.24-15.35L96.24-15.35Q97.69-14.9 97.69-13.35L97.69-13.35Q97.69-11.8 96.34-9.75L96.34-9.75Q95.09-7.95 91.84-5L91.84-5 93.64-5.85Q94.79-6.4 95.54-6.4L95.54-6.4Q95.94-6.4 96.14-6.2L96.14-6.2Q96.29-6 96.29-5.7L96.29-5.7Q96.29-5.3 96.14-5L96.14-5Q95.89-4.6 95.89-4.3L95.89-4.3Q95.89-3.75 96.44-3.75L96.44-3.75Q96.59-3.75 97.16-4 97.74-4.25 98.04-4.4L98.04-4.4Q98.59-4.7 99.01-4.98 99.44-5.25 99.79-5.5L99.79-5.5Q100.14-5.7 100.14-5.4L100.14-5.4Q99.99-5 99.54-4.75L99.54-4.75Q99.19-4.5 98.61-4.03 98.04-3.55 97.19-2.9L97.19-2.9 94.99-1.15Q94.54-0.75 93.84 0.55L93.84 0.55 92.24 3.6 91.64 4.7Q90.74 6.35 89.86 8.05 88.99 9.75 87.99 11.35L87.99 11.35Q84.49 17.35 82.54 18.8L82.54 18.8Q81.39 19.65 80.89 19.65ZM81.94 17.65L81.94 17.65Q82.34 17.65 82.69 17.3L82.69 17.3Q83.49 16.65 84.94 14.35L84.94 14.35Q86.59 11.85 88.14 9.05 89.69 6.25 90.49 4.2L90.49 4.2Q90.59 3.95 90.64 3.75 90.69 3.55 90.74 3.45L90.74 3.45Q90.84 3.15 90.84 3.1L90.84 3.1Q90.84 2.55 90.24 2.85L90.24 2.85Q90.04 2.95 89.81 3.1 89.59 3.25 89.34 3.5L89.34 3.5Q87.94 4.7 86.41 6.63 84.89 8.55 82.59 12.25L82.59 12.25Q81.94 13.3 81.59 14.48 81.24 15.65 81.24 16.5L81.24 16.5Q81.24 17.2 81.44 17.4L81.44 17.4Q81.69 17.65 81.94 17.65ZM103.08 0.55L103.08 0.55Q102.03 0.55 101.23 0L101.23 0Q99.93-1 99.93-3L99.93-3Q99.93-5 101.33-7.25 102.73-9.5 105.58-11.4L105.58-11.4Q106.08-11.75 106.93-11.75L106.93-11.75Q108.03-11.75 108.91-11.15 109.78-10.55 109.58-9.6L109.58-9.6Q109.23-8.05 108.06-6.85 106.88-5.65 105.31-4.73 103.73-3.8 102.08-2.95L102.08-2.95Q102.03-2.8 102.01-2.65 101.98-2.5 101.98-2.35L101.98-2.35Q101.98-1.65 102.46-1.13 102.93-0.6 103.78-0.6L103.78-0.6Q104.43-0.6 104.88-0.8L104.88-0.8Q105.68-1.1 106.21-1.35 106.73-1.6 107.43-2.1 108.13-2.6 109.33-3.6L109.33-3.6Q109.88-4 109.98-4L109.98-4Q110.28-4 110.18-3.55L110.18-3.55Q109.68-2.75 108.46-1.8 107.23-0.85 105.76-0.15 104.28 0.55 103.08 0.55ZM102.38-4.3L102.38-4.3Q102.78-4.3 104.03-5.1 105.28-5.9 106.38-6.85L106.38-6.85Q108.28-8.6 108.28-9.55L108.28-9.55Q108.28-9.8 108.13-10L108.13-10Q107.98-10.25 107.68-10.25L107.68-10.25Q106.73-10.25 104.48-8L104.48-8Q102.93-6.5 102.38-4.3ZM119.18 10.25L119.18 10.25Q118.08 10.25 117.38 9.25 116.68 8.25 116.68 6.9L116.68 6.9Q116.68 6.15 116.93 5.55L116.93 5.55Q117.33 4.7 117.58 4.7L117.58 4.7Q117.78 4.7 117.78 5L117.78 5Q117.78 5.25 117.63 5.65L117.63 5.65Q117.58 5.8 117.55 5.93 117.53 6.05 117.53 6.15L117.53 6.15Q117.53 7.05 118.05 8 118.58 8.95 119.38 8.95L119.38 8.95 119.78 8.85Q120.98 8.55 122.05 7.53 123.13 6.5 124.18 5L124.18 5Q125.58 2.95 126.68 0.58 127.78-1.8 128.58-4.15 129.38-6.5 129.78-8.4L129.78-8.4Q129.78-8.65 129.58-8.65L129.58-8.65Q129.23-8.65 128.48-7.85L128.48-7.85Q127.88-7.2 126.93-6.05 125.98-4.9 124.58-3.3L124.58-3.3 123.78-2.35Q122.98-1.4 122.15-0.98 121.33-0.55 120.63-0.55L120.63-0.55Q120.03-0.55 119.63-0.8L119.63-0.8Q119.13-1.15 119.13-2.05L119.13-2.05Q119.13-3.5 120.48-6.85L120.48-6.85 121.13-8.45Q121.63-9.6 122-10.55 122.38-11.5 122.73-12.3L122.73-12.3Q123.08-12.95 123.53-12.95L123.53-12.95Q124.08-12.95 123.73-12.3L123.73-12.3Q121.93-8.2 121.63-5.85L121.63-5.85Q121.58-5.75 121.58-5.58 121.58-5.4 121.58-5.2L121.58-5.2Q121.58-4.1 122.48-4.1L122.48-4.1Q123.08-4.1 124.18-4.8L124.18-4.8Q125.28-5.6 126.93-7.33 128.58-9.05 130.88-11.7L130.88-11.7Q131.28-12.1 131.63-12.5 131.98-12.9 132.28-13.25L132.28-13.25Q132.48-13.45 132.63-13.45L132.63-13.45Q132.78-13.45 132.78-13L132.78-13Q132.78-12.55 132.63-11.85L132.63-11.85Q132.48-11.2 132.48-11.05L132.48-11.05Q131.88-7.4 130.28-3.2L130.28-3.2Q128.63 0.95 126.1 4.5 123.58 8.05 120.48 9.85L120.48 9.85Q119.83 10.25 119.18 10.25ZM133.73 0.85L133.73 0.85Q131.78 0.85 131.78-0.9L131.78-0.9Q131.78-1 131.8-1.25 131.83-1.5 131.88-1.85L131.88-1.85Q132.38-3.9 133.9-5.83 135.43-7.75 137.43-9.2L137.43-9.2Q138.18-9.8 139.83-9.8L139.83-9.8Q140.78-9.8 141.5-9.53 142.23-9.25 142.53-8.7L142.53-8.7Q142.83-8.2 142.83-7.55L142.83-7.55Q142.83-7.45 142.8-7.25 142.78-7.05 142.73-6.8L142.73-6.8Q142.83-6.85 143.05-6.85 143.28-6.85 143.63-6.9L143.63-6.9Q143.98-6.95 144.3-7 144.63-7.05 144.98-7.05L144.98-7.05 145.18-7.05Q145.73-7.05 145.3-6.63 144.88-6.2 144.18-6.1L144.18-6.1 142.48-5.9Q141.98-4.5 140.75-3.1 139.53-1.7 138.05-0.68 136.58 0.35 135.28 0.65L135.28 0.65Q134.53 0.85 133.73 0.85ZM140.13-6.6L140.13-6.6Q140.43-6.6 140.85-6.63 141.28-6.65 141.83-6.7L141.83-6.7Q141.88-6.8 141.88-7.15L141.88-7.15Q141.88-8.05 141.13-8.4L141.13-8.4Q140.73-8.65 140.13-8.65L140.13-8.65Q139.38-8.65 138.6-8.18 137.83-7.7 136.98-6.95L136.98-6.95Q138.03-6.6 140.13-6.6ZM135.23-0.9L135.23-0.9Q135.73-0.9 136.65-1.38 137.58-1.85 138.58-2.65 139.58-3.45 140.38-4.35L140.38-4.35Q140.63-4.6 140.88-4.98 141.13-5.35 141.43-5.75L141.43-5.75 140.23-5.6Q137.43-5.2 135.23-5.15L135.23-5.15Q134.13-3.35 133.88-2.15L133.88-2.15Q133.83-1.5 134.23-1.2 134.63-0.9 135.23-0.9ZM153.17 1.45L153.17 1.45Q151.87 1.45 151.87-0.45L151.87-0.45Q151.87-2.4 153.22-6.2L153.22-6.2Q151.62-4.15 150.05-2.58 148.47-1 146.92 0L146.92 0Q145.82 0.8 144.92 0.8L144.92 0.8Q143.72 0.8 143.72-0.85L143.72-0.85Q143.72-1.75 144.02-2.5L144.02-2.5Q144.42-3.6 145.2-5.05 145.97-6.5 147.02-7.95 148.07-9.4 149.17-10.4L149.17-10.4Q149.57-10.65 149.67-10.65L149.67-10.65Q150.02-10.65 150.02-10.25L150.02-10.25Q150.02-10.1 149.87-9.85L149.87-9.85Q149.42-9.35 148.82-8.4 148.22-7.45 147.67-6.35 147.12-5.25 146.75-4.33 146.37-3.4 146.37-2.95L146.37-2.95Q146.37-2.05 147.17-2.05L147.17-2.05Q147.52-2.05 147.92-2.3L147.92-2.3Q149.77-3.45 151.32-5.08 152.87-6.7 154.22-9.5L154.22-9.5Q154.67-9.8 155.22-9.8L155.22-9.8Q155.77-9.8 156.15-9.45 156.52-9.1 156.52-8.5L156.52-8.5Q156.52-8.05 156.27-7.45L156.27-7.45Q156.22-7.25 156.1-7.05 155.97-6.85 155.82-6.6L155.82-6.6Q155.67-6.35 155.57-6.13 155.47-5.9 155.37-5.75L155.37-5.75Q154.42-4.05 153.9-2.9 153.37-1.75 153.37-0.9L153.37-0.9Q153.37 0.1 154.27 0.1L154.27 0.1Q155.07 0.1 155.87-0.5L155.87-0.5Q156.37-0.85 156.72-0.85L156.72-0.85Q157.27-0.85 156.5-0.18 155.72 0.5 154.62 1.05L154.62 1.05Q153.57 1.45 153.17 1.45ZM157.92 1.05L157.92 1.05Q157.27 1.05 157.27-0.1L157.27-0.1Q157.27-1.05 157.72-1.95L157.72-1.95Q158.87-4.15 159.82-6.3L159.82-6.3Q160.47-7.6 161.05-8.8 161.62-10 162.12-11L162.12-11Q162.42-11.3 162.72-11.3L162.72-11.3Q163.37-11.3 163.12-10.7L163.12-10.7Q163.02-10.35 162.85-9.88 162.67-9.4 162.42-8.75L162.42-8.75Q161.62-6.65 161.47-5.8L161.47-5.8Q162.87-7.05 164.35-8.13 165.82-9.2 167.12-9.9 168.42-10.6 169.32-10.6L169.32-10.6Q170.12-10.6 170.12-9.95L170.12-9.95Q170.12-9.4 169.62-8.78 169.12-8.15 168.62-8.15L168.62-8.15Q168.37-8.15 168.22-8.3L168.22-8.3Q168.07-8.35 167.62-8.35L167.62-8.35Q166.02-8.35 164.27-6.8L164.27-6.8Q162.42-5.25 160.92-3.08 159.42-0.9 158.72 0.7L158.72 0.7Q158.37 1.05 157.92 1.05ZM169.17 14.45L169.17 14.45Q168.67 14.45 168.47 14.35L168.47 14.35Q168.32 14.2 168.17 14 168.02 13.8 168.02 13.65L168.02 13.65Q168.12 11.5 169.37 8.75 170.62 6 172.64 3 174.67 0 176.97-2.75L176.97-2.75Q179.02-5.25 179.82-6.5L179.82-6.5Q180.47-7.6 181.34-9.73 182.22-11.85 183.32-14.95L183.32-14.95Q183.42-15.25 184.07-15.35L184.07-15.35Q184.87-15.35 184.87-14.15L184.87-14.15Q184.87-13.5 184.72-13.2L184.72-13.2Q184.67-12.95 184.59-12.73 184.52-12.5 184.47-12.4L184.47-12.4Q184.32-12.1 184.32-12L184.32-12Q184.32-12 184.37-11.85 184.42-11.7 184.47-11.45L184.47-11.45Q186.12-12.25 187.37-12.73 188.62-13.2 189.77-13.2L189.77-13.2Q191.12-13.2 191.62-12.3L191.62-12.3Q191.77-12 191.77-11.55L191.77-11.55Q191.77-10.45 190.92-8.78 190.07-7.1 188.74-5.33 187.42-3.55 185.87-2.15L185.87-2.15Q185.32-1.65 184.29-1.05 183.27-0.45 182.09 0.08 180.92 0.6 179.84 0.95 178.77 1.3 178.17 1.3L178.17 1.3Q177.52 2.65 176.87 3.93 176.22 5.2 175.52 6.4L175.52 6.4Q172.32 12.1 169.82 14.35L169.82 14.35Q169.72 14.45 169.17 14.45ZM180.12-2.75L179.22-0.85Q181.57-1.25 184.22-2.9L184.22-2.9Q186.87-4.55 188.62-6.85 190.37-9.15 190.22-11.45L190.22-11.45Q189.92-12.35 188.97-12.35L188.97-12.35Q188.32-12.35 187.34-11.9 186.37-11.45 185.37-10.75 184.37-10.05 183.59-9.35 182.82-8.65 182.52-8.15L182.52-8.15Q182.27-7.8 181.92-6.9L181.92-6.9Q181.72-6.5 181.62-6.2 181.52-5.9 181.47-5.8L181.47-5.8Q181.22-5.15 180.87-4.38 180.52-3.6 180.12-2.75L180.12-2.75ZM169.77 11.5L169.77 11.5Q169.77 11.7 169.87 11.7L169.87 11.7Q170.12 11.7 170.77 10.95L170.77 10.95Q171.82 9.85 172.37 8.95L172.37 8.95Q173.37 7.35 174.24 5.75 175.12 4.15 175.92 2.55L175.92 2.55Q177.57-0.65 177.32-1.35L177.32-1.35Q176.57-0.6 175.54 0.83 174.52 2.25 173.44 4 172.37 5.75 171.44 7.48 170.52 9.2 170.02 10.55L170.02 10.55Q169.77 11.4 169.77 11.5ZM191.71 0.85L191.71 0.85Q189.76 0.85 189.76-0.9L189.76-0.9Q189.76-1 189.79-1.25 189.81-1.5 189.86-1.85L189.86-1.85Q190.36-3.9 191.89-5.83 193.41-7.75 195.41-9.2L195.41-9.2Q196.16-9.8 197.81-9.8L197.81-9.8Q198.76-9.8 199.49-9.53 200.21-9.25 200.51-8.7L200.51-8.7Q200.81-8.2 200.81-7.55L200.81-7.55Q200.81-7.45 200.79-7.25 200.76-7.05 200.71-6.8L200.71-6.8Q200.81-6.85 201.04-6.85 201.26-6.85 201.61-6.9L201.61-6.9Q201.96-6.95 202.29-7 202.61-7.05 202.96-7.05L202.96-7.05 203.16-7.05Q203.71-7.05 203.29-6.63 202.86-6.2 202.16-6.1L202.16-6.1 200.46-5.9Q199.96-4.5 198.74-3.1 197.51-1.7 196.04-0.68 194.56 0.35 193.26 0.65L193.26 0.65Q192.51 0.85 191.71 0.85ZM198.11-6.6L198.11-6.6Q198.41-6.6 198.84-6.63 199.26-6.65 199.81-6.7L199.81-6.7Q199.86-6.8 199.86-7.15L199.86-7.15Q199.86-8.05 199.11-8.4L199.11-8.4Q198.71-8.65 198.11-8.65L198.11-8.65Q197.36-8.65 196.59-8.18 195.81-7.7 194.96-6.95L194.96-6.95Q196.01-6.6 198.11-6.6ZM193.21-0.9L193.21-0.9Q193.71-0.9 194.64-1.38 195.56-1.85 196.56-2.65 197.56-3.45 198.36-4.35L198.36-4.35Q198.61-4.6 198.86-4.98 199.11-5.35 199.41-5.75L199.41-5.75 198.21-5.6Q195.41-5.2 193.21-5.15L193.21-5.15Q192.11-3.35 191.86-2.15L191.86-2.15Q191.81-1.5 192.21-1.2 192.61-0.9 193.21-0.9ZM201.86 1.05L201.86 1.05Q201.21 1.05 201.21-0.1L201.21-0.1Q201.21-1.05 201.66-1.95L201.66-1.95Q202.81-4.15 203.76-6.3L203.76-6.3Q204.41-7.6 204.99-8.8 205.56-10 206.06-11L206.06-11Q206.36-11.3 206.66-11.3L206.66-11.3Q207.31-11.3 207.06-10.7L207.06-10.7Q206.96-10.35 206.79-9.88 206.61-9.4 206.36-8.75L206.36-8.75Q205.56-6.65 205.41-5.8L205.41-5.8Q206.81-7.05 208.29-8.13 209.76-9.2 211.06-9.9 212.36-10.6 213.26-10.6L213.26-10.6Q214.06-10.6 214.06-9.95L214.06-9.95Q214.06-9.4 213.56-8.78 213.06-8.15 212.56-8.15L212.56-8.15Q212.31-8.15 212.16-8.3L212.16-8.3Q212.01-8.35 211.56-8.35L211.56-8.35Q209.96-8.35 208.21-6.8L208.21-6.8Q206.36-5.25 204.86-3.08 203.36-0.9 202.66 0.7L202.66 0.7Q202.31 1.05 201.86 1.05ZM212.21 4.65L212.21 4.65Q211.96 4.65 211.96 4.2L211.96 4.2Q211.96 4.1 211.98 3.93 212.01 3.75 212.06 3.55L212.06 3.55 214.21-1.85 216.76-8.15Q216.16-8.2 215.01-8.13 213.86-8.05 213.06-7.9L213.06-7.9Q212.76-7.85 212.58-7.83 212.41-7.8 212.31-7.8L212.31-7.8Q211.91-7.8 211.76-8.15L211.76-8.15Q211.81-8.45 212.31-8.7L212.31-8.7Q212.56-8.8 212.91-8.88 213.26-8.95 213.76-9.05L213.76-9.05Q214.31-9.15 214.73-9.2 215.16-9.25 215.36-9.3L215.36-9.3Q215.61-9.35 215.86-9.4 216.11-9.45 216.46-9.5L216.46-9.5Q216.76-9.55 217.11-9.6 217.46-9.65 217.86-9.75L217.86-9.75Q218.26-10.3 219.06-11.7 219.86-13.1 221.11-15.4L221.11-15.4Q222.11-17.25 222.73-18.32 223.36-19.4 223.61-19.75L223.61-19.75Q224.06-20.35 224.66-20.35L224.66-20.35Q224.96-20.35 224.96-20.1L224.96-20.1Q224.96-20.05 224.71-19.45L224.71-19.45Q224.41-18.95 223.71-17.6 223.01-16.25 222.21-14.65 221.41-13.05 220.76-11.65 220.11-10.25 219.86-9.6L219.86-9.6Q220.11-9.65 220.43-9.65 220.76-9.65 221.26-9.65L221.26-9.65Q221.81-9.65 222.28-9.63 222.76-9.6 223.11-9.55L223.11-9.55Q223.81-9.4 223.81-9.15L223.81-9.15Q223.81-9.05 223.36-8.8L223.36-8.8Q223.11-8.7 222.41-8.6 221.71-8.5 220.56-8.4L220.56-8.4Q220.26-8.4 219.91-8.38 219.56-8.35 219.16-8.3L219.16-8.3Q217.66-5.85 215.06-0.15L215.06-0.15Q214.11 1.75 213.61 2.8 213.11 3.85 213.01 4.05L213.01 4.05Q212.56 4.65 212.21 4.65ZM223.06 3.3L223.06 3.3Q222.51 3.3 222.13 2.95 221.76 2.6 221.81 2.1L221.81 2.1Q221.66 1.4 222.03 0.08 222.41-1.25 223.11-2.9 223.81-4.55 224.63-6.3 225.46-8.05 226.21-9.55L226.21-9.55 222.86-8.65 222.76-8.65Q222.41-8.65 222.41-9L222.41-9Q222.41-9.5 222.83-10.18 223.26-10.85 223.76-11L223.76-11Q224.26-11.2 225.16-11.35 226.06-11.5 227.41-11.7L227.41-11.7Q235.91-25.95 238.16-26.15L238.16-26.15Q240.81-26.45 240.81-22.8L240.81-22.8Q240.81-22.35 240.73-21.73 240.66-21.1 240.56-20.25L240.56-20.25Q240.51-19.75 240.21-19.75L240.21-19.75Q240.01-19.75 239.88-20.05 239.76-20.35 239.86-20.8L239.86-20.8Q240.01-21.7 240.01-22.3L240.01-22.3Q240.01-24.25 238.86-24.25L238.86-24.25Q237.71-24.25 235.21-20.65L235.21-20.65Q233.96-18.8 232.53-16.63 231.11-14.45 229.56-11.95L229.56-11.95Q230.01-12 230.46-12.03 230.91-12.05 231.31-12.05L231.31-12.05Q231.76-12.05 232.33-12.08 232.91-12.1 233.56-12.15L233.56-12.15Q233.96-12.45 234.31-12.45L234.31-12.45Q234.96-12.45 234.96-11.75L234.96-11.75Q234.96-11 234.11-11L234.11-11Q233.86-11 233.41-11.15L233.41-11.15Q232.11-11.05 231.41-10.93 230.71-10.8 230.11-10.63 229.51-10.45 228.51-10.2L228.51-10.2Q227.26-8.15 226.16-6.13 225.06-4.1 224.33-2.4 223.61-0.7 223.61 0.4L223.61 0.4Q223.61 1.4 224.41 1.45L224.41 1.45Q225.11 1.15 225.41 1.15L225.41 1.15Q225.76 1.15 225.76 1.4L225.76 1.4Q225.76 1.85 224.71 2.65L224.71 2.65Q223.91 3.3 223.06 3.3ZM232 0.85L232 0.85Q230.05 0.85 230.05-0.9L230.05-0.9Q230.05-1 230.08-1.25 230.1-1.5 230.15-1.85L230.15-1.85Q230.65-3.9 232.18-5.83 233.7-7.75 235.7-9.2L235.7-9.2Q236.45-9.8 238.1-9.8L238.1-9.8Q239.05-9.8 239.78-9.53 240.5-9.25 240.8-8.7L240.8-8.7Q241.1-8.2 241.1-7.55L241.1-7.55Q241.1-7.45 241.08-7.25 241.05-7.05 241-6.8L241-6.8Q241.1-6.85 241.33-6.85 241.55-6.85 241.9-6.9L241.9-6.9Q242.25-6.95 242.58-7 242.9-7.05 243.25-7.05L243.25-7.05 243.45-7.05Q244-7.05 243.58-6.63 243.15-6.2 242.45-6.1L242.45-6.1 240.75-5.9Q240.25-4.5 239.03-3.1 237.8-1.7 236.33-0.68 234.85 0.35 233.55 0.65L233.55 0.65Q232.8 0.85 232 0.85ZM238.4-6.6L238.4-6.6Q238.7-6.6 239.13-6.63 239.55-6.65 240.1-6.7L240.1-6.7Q240.15-6.8 240.15-7.15L240.15-7.15Q240.15-8.05 239.4-8.4L239.4-8.4Q239-8.65 238.4-8.65L238.4-8.65Q237.65-8.65 236.88-8.18 236.1-7.7 235.25-6.95L235.25-6.95Q236.3-6.6 238.4-6.6ZM233.5-0.9L233.5-0.9Q234-0.9 234.93-1.38 235.85-1.85 236.85-2.65 237.85-3.45 238.65-4.35L238.65-4.35Q238.9-4.6 239.15-4.98 239.4-5.35 239.7-5.75L239.7-5.75 238.5-5.6Q235.7-5.2 233.5-5.15L233.5-5.15Q232.4-3.35 232.15-2.15L232.15-2.15Q232.1-1.5 232.5-1.2 232.9-0.9 233.5-0.9ZM242.3 3.3L242.3 3.3Q241.75 3.3 241.38 2.95 241 2.6 241.05 2.1L241.05 2.1Q241.15 0.05 241.83-1.85 242.5-3.75 243.8-6.4L243.8-6.4Q243.95-6.75 244.08-7.03 244.2-7.3 244.3-7.5L244.3-7.5Q245.4-9.85 246.55-12 247.7-14.15 248.85-16.2L248.85-16.2 249.55-17.45Q250.75-19.6 251.65-20.93 252.55-22.25 253.45-22.85L253.45-22.85Q254.6-23.55 254.85-23.55L254.85-23.55Q255.25-23.55 255.65-22.85L255.65-22.85Q255.9-22.35 254.65-20.4L254.65-20.4Q254-19.4 253.03-17.9 252.05-16.4 250.7-14.5L250.7-14.5Q250.45-14.15 249.88-13.28 249.3-12.4 248.35-11L248.35-11Q247.4-9.6 246.7-8.47 246-7.35 245.55-6.5L245.55-6.5Q244.65-4.85 243.85-2.98 243.05-1.1 243.05-0.05L243.05-0.05Q243.05 0.9 243.8 0.9L243.8 0.9Q245 0.9 247.65-1.15L247.65-1.15Q247.95-1.1 247.95-0.85L247.95-0.85Q247.95-0.65 247.45-0.15L247.45-0.15Q247 0.3 246.33 0.83 245.65 1.35 244.75 2.05L244.75 2.05 243.95 2.65Q243.15 3.3 242.3 3.3ZM255-10.95L255-10.95Q254.35-10.95 254.35-11.25L254.35-11.25Q254.35-11.5 254.72-11.98 255.1-12.45 255.6-12.8L255.6-12.8Q256.7-13.5 257.32-14 257.95-14.5 258.85-15.7L258.85-15.7Q258.9-15.6 258.9-15.3L258.9-15.3Q258.9-14.65 258.37-13.73 257.85-12.8 257.2-12.05 256.55-11.3 256.05-11.1L256.05-11.1Q255.6-10.95 255-10.95ZM250.55 1.3L250.55 1.3Q250.15 1.3 249.8 1 249.45 0.7 249.45 0.2L249.45 0.2Q249.45-0.85 250.9-3.65L250.9-3.65 251.45-4.75Q251.55-4.85 251.72-5.25 251.9-5.65 252.25-6.3L252.25-6.3Q252.6-7 252.8-7.55 253-8.1 253.1-8.6L253.1-8.6Q253.1-8.65 253.3-8.8 253.5-8.95 253.7-9.05L253.7-9.05 254-9.1Q254.4-9.1 254.67-8.95 254.95-8.8 254.85-8.55L254.85-8.55Q254.5-7.8 254.25-7.25 254-6.7 253.85-6.3L253.85-6.3 253.8-6.3Q253.25-5.05 252.87-3.93 252.5-2.8 252.55-1.8L252.55-1.8 252.6-0.45Q252.55 0.05 252.25 0.4L252.25 0.4Q252.05 0.55 251.7 0.78 251.35 1 250.8 1.25L250.8 1.25Q250.75 1.3 250.55 1.3ZM256.95 0.85L256.95 0.85Q255 0.85 255-0.9L255-0.9Q255-1 255.02-1.25 255.05-1.5 255.1-1.85L255.1-1.85Q255.6-3.9 257.12-5.83 258.65-7.75 260.65-9.2L260.65-9.2Q261.4-9.8 263.05-9.8L263.05-9.8Q264-9.8 264.72-9.53 265.45-9.25 265.75-8.7L265.75-8.7Q266.05-8.2 266.05-7.55L266.05-7.55Q266.05-7.45 266.02-7.25 266-7.05 265.95-6.8L265.95-6.8Q266.05-6.85 266.27-6.85 266.5-6.85 266.85-6.9L266.85-6.9Q267.2-6.95 267.52-7 267.85-7.05 268.2-7.05L268.2-7.05 268.4-7.05Q268.95-7.05 268.52-6.63 268.1-6.2 267.4-6.1L267.4-6.1 265.7-5.9Q265.2-4.5 263.97-3.1 262.75-1.7 261.27-0.68 259.8 0.35 258.5 0.65L258.5 0.65Q257.75 0.85 256.95 0.85ZM263.35-6.6L263.35-6.6Q263.65-6.6 264.07-6.63 264.5-6.65 265.05-6.7L265.05-6.7Q265.1-6.8 265.1-7.15L265.1-7.15Q265.1-8.05 264.35-8.4L264.35-8.4Q263.95-8.65 263.35-8.65L263.35-8.65Q262.6-8.65 261.82-8.18 261.05-7.7 260.2-6.95L260.2-6.95Q261.25-6.6 263.35-6.6ZM258.45-0.9L258.45-0.9Q258.95-0.9 259.87-1.38 260.8-1.85 261.8-2.65 262.8-3.45 263.6-4.35L263.6-4.35Q263.85-4.6 264.1-4.98 264.35-5.35 264.65-5.75L264.65-5.75 263.45-5.6Q260.65-5.2 258.45-5.15L258.45-5.15Q257.35-3.35 257.1-2.15L257.1-2.15Q257.05-1.5 257.45-1.2 257.85-0.9 258.45-0.9Z" opacity="1" transform="matrix(1,0,0,1,0,0)" fill="#ffffff" class="slogan-text-1" data-fill-palette-color="secondary" id="text-1"></path></svg></g></svg></g></svg></g></svg></g><g transform="matrix(1,0,0,1,91.17376135461555,0)"><svg viewBox="0 0 213.17247729076888 213.17247729076888" height="213.17247729076888" width="213.17247729076888"><g><svg></svg></g><g id="icon-0"><svg viewBox="0 0 213.17247729076888 213.17247729076888" height="213.17247729076888" width="213.17247729076888"><g><path d="M0 106.586c0-58.866 47.72-106.586 106.586-106.586 58.866 0 106.586 47.72 106.586 106.586 0 58.866-47.72 106.586-106.586 106.586-58.866 0-106.586-47.72-106.586-106.586zM106.586 208.973c56.547 0 102.387-45.84 102.387-102.387 0-56.547-45.84-102.387-102.387-102.387-56.547 0-102.387 45.84-102.387 102.387 0 56.547 45.84 102.387 102.387 102.387z" data-fill-palette-color="tertiary" fill="#ffffff" stroke="transparent"></path></g><g transform="matrix(1,0,0,1,42.178324643548336,45.21643379457834)"><svg viewBox="0 0 128.8158280036722 122.7396097016122" height="122.7396097016122" width="128.8158280036722"><g><svg xmlns="http://www.w3.org/2000/svg" xmlns:xlink="http://www.w3.org/1999/xlink" version="1.1" x="0" y="0" viewBox="10.937 10.584 39.75 37.875" enable-background="new 0 0 62.666 58.667" xml:space="preserve" height="122.7396097016122" width="128.8158280036722" class="icon-dxe-0" data-fill-palette-color="accent" id="dxe-0"><g fill="#00d1cd" data-fill-palette-color="accent"><g fill="#00d1cd" data-fill-palette-color="accent"><path d="M13.437 22.084H20.187C21.566 22.084 22.687 20.962 22.687 19.584V13.084C22.687 11.706 21.566 10.584 20.187 10.584H13.437A2.503 2.503 0 0 0 10.937 13.084V19.584C10.937 20.962 12.058 22.084 13.437 22.084M11.937 13.084C11.937 12.257 12.61 11.584 13.437 11.584H20.187C21.014 11.584 21.687 12.257 21.687 13.084V19.584C21.687 20.411 21.014 21.084 20.187 21.084H13.437C12.61 21.084 11.937 20.411 11.937 19.584z" fill="#ffffff" data-fill-palette-color="accent"></path><path d="M27.437 22.084H34.187C35.566 22.084 36.687 20.962 36.687 19.584V13.084C36.687 11.706 35.566 10.584 34.187 10.584H27.437A2.503 2.503 0 0 0 24.937 13.084V19.584C24.937 20.962 26.058 22.084 27.437 22.084M25.937 13.084C25.937 12.257 26.61 11.584 27.437 11.584H34.187C35.014 11.584 35.687 12.257 35.687 13.084V19.584C35.687 20.411 35.014 21.084 34.187 21.084H27.437C26.61 21.084 25.937 20.411 25.937 19.584z" fill="#ffffff" data-fill-palette-color="accent"></path><path d="M48.187 10.584H41.437A2.503 2.503 0 0 0 38.937 13.084V19.584C38.937 20.962 40.058 22.084 41.437 22.084H48.187C49.566 22.084 50.687 20.962 50.687 19.584V13.084C50.687 11.706 49.565 10.584 48.187 10.584M49.687 19.584C49.687 20.411 49.014 21.084 48.187 21.084H41.437C40.61 21.084 39.937 20.411 39.937 19.584V13.084C39.937 12.257 40.61 11.584 41.437 11.584H48.187C49.014 11.584 49.687 12.257 49.687 13.084z" fill="#ffffff" data-fill-palette-color="accent"></path><path d="M13.437 35.084H20.187C21.566 35.084 22.687 33.962 22.687 32.584V26.084C22.687 24.706 21.566 23.584 20.187 23.584H13.437A2.503 2.503 0 0 0 10.937 26.084V32.584C10.937 33.962 12.058 35.084 13.437 35.084M11.937 26.084C11.937 25.257 12.61 24.584 13.437 24.584H20.187C21.014 24.584 21.687 25.257 21.687 26.084V32.584C21.687 33.411 21.014 34.084 20.187 34.084H13.437C12.61 34.084 11.937 33.411 11.937 32.584z" fill="#ffffff" data-fill-palette-color="accent"></path><path d="M27.437 35.084H34.187C35.566 35.084 36.687 33.962 36.687 32.584V26.084C36.687 24.706 35.566 23.584 34.187 23.584H27.437A2.503 2.503 0 0 0 24.937 26.084V32.584C24.937 33.962 26.058 35.084 27.437 35.084M25.937 26.084C25.937 25.257 26.61 24.584 27.437 24.584H34.187C35.014 24.584 35.687 25.257 35.687 26.084V32.584C35.687 33.411 35.014 34.084 34.187 34.084H27.437C26.61 34.084 25.937 33.411 25.937 32.584z" fill="#ffffff" data-fill-palette-color="accent"></path><path d="M48.187 23.584H41.437A2.503 2.503 0 0 0 38.937 26.084V45.959C38.937 47.337 40.058 48.459 41.437 48.459H48.187C49.566 48.459 50.687 47.337 50.687 45.959V26.084C50.687 24.706 49.565 23.584 48.187 23.584M49.687 45.959C49.687 46.786 49.014 47.459 48.187 47.459H41.437C40.61 47.459 39.937 46.786 39.937 45.959V26.084C39.937 25.257 40.61 24.584 41.437 24.584H48.187C49.014 24.584 49.687 25.257 49.687 26.084z" fill="#ffffff" data-fill-palette-color="accent"></path><path d="M13.437 48.084H20.187C21.566 48.084 22.687 46.962 22.687 45.584V39.084C22.687 37.706 21.566 36.584 20.187 36.584H13.437A2.503 2.503 0 0 0 10.937 39.084V45.584C10.937 46.962 12.058 48.084 13.437 48.084M11.937 39.084C11.937 38.257 12.61 37.584 13.437 37.584H20.187C21.014 37.584 21.687 38.257 21.687 39.084V45.584C21.687 46.411 21.014 47.084 20.187 47.084H13.437C12.61 47.084 11.937 46.411 11.937 45.584z" fill="#ffffff" data-fill-palette-color="accent"></path><path d="M27.437 48.084H34.187C35.566 48.084 36.687 46.962 36.687 45.584V39.084C36.687 37.706 35.566 36.584 34.187 36.584H27.437A2.503 2.503 0 0 0 24.937 39.084V45.584C24.937 46.962 26.058 48.084 27.437 48.084M25.937 39.084C25.937 38.257 26.61 37.584 27.437 37.584H34.187C35.014 37.584 35.687 38.257 35.687 39.084V45.584C35.687 46.411 35.014 47.084 34.187 47.084H27.437C26.61 47.084 25.937 46.411 25.937 45.584z" fill="#ffffff" data-fill-palette-color="accent"></path></g></g></svg></g></svg></g></svg></g></svg></g><g></g></svg></g><defs></defs></svg><rect width="304.1256028820351" height="247.2" fill="none" stroke="none" visibility="hidden"></rect></g></svg></g></svg>